<svg width="36" height="36" viewBox="0 0 36 36" fill="none" xmlns="http://www.w3.org/2000/svg">
<path d="M6 1.01636H29.964C32.7254 1.01636 34.964 3.25493 34.964 6.01636V23.6326C34.964 26.2935 32.8801 28.4882 30.2229 28.6259L23.9552 28.9509C21.7797 29.0637 19.9411 30.6022 19.4466 32.7238C19.3866 32.9811 19.0455 33.0374 18.906 32.813L18.3392 31.9011C17.2595 30.1643 15.3955 29.0688 13.3528 28.9705L5.75986 28.6054C3.09487 28.4773 1 26.2793 1 23.6112V6.01635C1 3.25493 3.23858 1.01636 6 1.01636Z" stroke="#999595" stroke-width="2"/>
<path d="M7.07875 11.8143H30.6746" stroke="#999595" stroke-width="2" stroke-linecap="round"/>
<path d="M12.9777 17.7133H28.315" stroke="#999595" stroke-width="2" stroke-linecap="round"/>
</svg>
