<svg width="35" height="30" viewBox="0 0 35 30" fill="none" xmlns="http://www.w3.org/2000/svg">
<path d="M34.149 14.4414C33.8392 13.2503 33.3134 12.2577 32.6508 11.4857C31.6568 10.3167 30.389 9.64022 29.1645 9.26524C27.9401 8.88291 26.7372 8.78732 25.7792 8.78732C25.5055 8.78732 25.2534 8.79468 25.0229 8.80938C24.8572 8.81673 24.7132 8.70645 24.6699 8.54469C24.0361 6.28011 22.9628 4.55226 21.6807 3.30968C20.1681 1.83182 18.4034 1.01568 16.8116 0.57453C15.6447 0.243665 14.449 0.0819092 13.2533 0.0819092C11.323 0.0819092 9.38538 0.508357 7.62067 1.3686C4.66748 2.80235 2.7227 4.75813 1.55583 6.89772C0.388957 9.03731 0 11.3166 0 13.4121C0.0072029 18.0221 1.85115 21.794 1.87996 21.8749C2.14646 22.4189 2.79473 22.6469 3.32774 22.3748C3.86075 22.1028 4.08404 21.4484 3.81754 20.897C3.79593 20.8676 2.15367 17.353 2.16087 13.4121C2.16087 11.596 2.49941 9.70639 3.44299 7.97854C4.39377 6.2507 5.9496 4.63314 8.54984 3.36114C10.012 2.64795 11.6327 2.28767 13.2533 2.28767C14.2545 2.28767 15.2629 2.42737 16.2353 2.69942C17.5823 3.0744 18.9941 3.74348 20.1825 4.89783C21.371 6.05953 22.365 7.7212 22.8476 10.2358C22.9628 10.8313 23.5175 11.221 24.1009 11.1107C24.1441 11.1034 24.8284 10.9857 25.772 10.9857C26.8524 10.9857 28.2714 11.1475 29.4455 11.7283C30.0361 12.0151 30.5691 12.4048 31.0157 12.9268C31.4623 13.4488 31.8224 14.1106 32.0529 15.0002C32.2762 15.8605 32.3626 16.6104 32.3626 17.2722C32.3626 18.228 32.1754 19 31.9089 19.6323C31.5055 20.5808 30.9004 21.2499 30.3818 21.6763C30.1297 21.8896 29.8992 22.044 29.7408 22.1322C29.6615 22.1763 29.6039 22.2131 29.5607 22.2351L29.5247 22.2572H29.5175C28.9773 22.5072 28.7324 23.1542 28.9701 23.7056C29.215 24.2644 29.8488 24.5144 30.3962 24.2718C30.4827 24.235 31.4695 23.7792 32.4851 22.6836C32.9893 22.1322 33.5007 21.419 33.8824 20.5146C34.2642 19.6176 34.5163 18.5294 34.5163 17.2795C34.5307 16.4119 34.4155 15.4634 34.149 14.4414Z" fill="#999595"/>
<path d="M22.7754 20.5143L19.0587 24.3083C18.8354 24.5362 18.4609 24.3744 18.4609 24.0583V13.2206C18.4609 12.6104 17.9783 12.1177 17.3804 12.1177C16.7826 12.1177 16.3 12.6104 16.3 13.2206V24.2421C16.3 24.5582 15.9254 24.72 15.7021 24.4921L11.3444 20.0438C10.9194 19.61 10.2351 19.61 9.81737 20.0438C9.3924 20.4776 9.3924 21.1761 9.81737 21.6025L17.0419 28.9771C17.1787 29.1168 17.402 29.1168 17.5389 28.9771L24.3096 22.0657C24.7346 21.6319 24.7346 20.9334 24.3096 20.507C23.8846 20.0805 23.2004 20.0805 22.7754 20.5143Z" fill="#999595"/>
</svg>
