<svg width="39" height="39" viewBox="0 0 39 39" fill="none" xmlns="http://www.w3.org/2000/svg">
<path d="M19.3524 14.6055C17.6775 14.6055 16.1861 15.276 15.0847 16.3722C13.9885 17.4735 13.318 18.9649 13.318 20.6399C13.318 22.3148 13.9885 23.8062 15.0847 24.9076C16.1861 26.0038 17.6775 26.6743 19.3524 26.6743C21.0274 26.6743 22.5188 26.0038 23.6201 24.9076C24.7163 23.8062 25.3868 22.3148 25.3868 20.6399C25.3868 18.9649 24.7163 17.4735 23.6201 16.3722C22.5188 15.276 21.0274 14.6055 19.355 14.6055H19.3524Z" fill="#D9D9D9"/>
<path d="M38.9955 9.30783C38.9828 6.74824 37.935 4.4181 36.2575 2.7406C34.5698 1.05035 32.2193 0 29.6418 0H9.35628C6.77884 0 4.4283 1.05035 2.7406 2.7406C1.05545 4.4232 0.00764818 6.76354 0 9.33078C0 9.33078 0 9.33843 0 9.35118V9.35373V29.6418C0 29.6418 0 29.6418 0 29.6469C0 32.2218 1.05035 34.5723 2.7406 36.26C4.4283 37.9503 6.77884 39.0006 9.35628 39.0006H29.6444C32.2218 39.0006 34.5723 37.9503 36.26 36.26C37.9146 34.608 38.9522 32.3212 38.9955 29.8075L39.0006 29.7948V9.30783H38.9955ZM29.8738 20.7878L29.8687 20.8005C29.8254 23.6354 28.6552 26.2154 26.789 28.079C24.8897 29.9809 22.246 31.1612 19.3474 31.1612C16.4461 31.1612 13.8024 29.9809 11.9031 28.079C10.0089 26.1874 8.82855 23.5564 8.82091 20.6679V20.6501V20.6373V20.6323V20.6093C8.826 17.7183 10.0064 15.0848 11.9031 13.1931C13.8024 11.2913 16.4461 10.1109 19.3474 10.1109C22.2486 10.1109 24.8897 11.2913 26.789 13.1931C28.6807 15.0822 29.8585 17.7055 29.8713 20.5889V20.622V20.6348V20.7852L29.8738 20.7878ZM31.6992 11.2301C31.2326 11.6966 30.58 11.9872 29.8687 11.9872C29.1574 11.9872 28.5048 11.6966 28.0382 11.2301C27.5717 10.7635 27.2785 10.1109 27.2811 9.39962C27.2811 8.68834 27.5717 8.03569 28.0382 7.56915C28.5048 7.10261 29.1574 6.80943 29.8687 6.81198C30.58 6.81198 31.2326 7.10261 31.6992 7.56915C32.1657 8.03569 32.4563 8.68834 32.4563 9.39962C32.4563 10.1109 32.1657 10.7635 31.6992 11.2301Z" fill="#D9D9D9"/>
</svg>
