<svg width="38" height="38" viewBox="0 0 38 38" fill="none" xmlns="http://www.w3.org/2000/svg">
<path d="M24.49 3.14441C24.1909 2.9982 23.8568 2.93887 23.5257 2.97319C23.1945 3.00751 22.8797 3.13409 22.6169 3.33853L12.4295 11.2618H5.92726C5.14126 11.2618 4.38745 11.574 3.83166 12.1298C3.27587 12.6856 2.96363 13.4394 2.96363 14.2254V23.709C2.96363 24.4951 3.27587 25.2489 3.83166 25.8047C4.38745 26.3604 5.14126 26.6727 5.92726 26.6727H12.4295L22.6169 34.5959C22.8797 34.8004 23.1945 34.927 23.5257 34.9613C23.8568 34.9957 24.191 34.9364 24.4901 34.7901C24.7891 34.6439 25.0412 34.4167 25.2175 34.1342C25.3938 33.8518 25.4872 33.5256 25.4872 33.1927V4.74181C25.4872 4.40889 25.3937 4.08266 25.2174 3.80026C25.0411 3.51786 24.7891 3.29062 24.49 3.14441ZM21.9309 29.5578L14.1321 23.4912C13.8199 23.2483 13.4356 23.1163 13.04 23.1163H6.51999V14.8182H13.04C13.4356 14.8181 13.8199 14.6862 14.1321 14.4433L21.9309 8.37818V29.5578ZM31.4145 15.4109V22.5236C31.4145 22.9952 31.2271 23.4475 30.8937 23.781C30.5602 24.1144 30.1079 24.3018 29.6363 24.3018C29.1647 24.3018 28.7124 24.1144 28.3789 23.781C28.0455 23.4475 27.8581 22.9952 27.8581 22.5236V15.4109C27.8581 14.9393 28.0455 14.487 28.3789 14.1535C28.7124 13.82 29.1647 13.6327 29.6363 13.6327C30.1079 13.6327 30.5602 13.82 30.8937 14.1535C31.2271 14.487 31.4145 14.9393 31.4145 15.4109ZM36.749 13.04V24.8945C36.749 25.3661 36.5617 25.8184 36.2282 26.1519C35.8947 26.4853 35.4424 26.6727 34.9708 26.6727C34.4992 26.6727 34.047 26.4853 33.7135 26.1519C33.38 25.8184 33.1927 25.3661 33.1927 24.8945V13.04C33.1927 12.5684 33.38 12.1161 33.7135 11.7826C34.047 11.4491 34.4992 11.2618 34.9708 11.2618C35.4424 11.2618 35.8947 11.4491 36.2282 11.7826C36.5617 12.1161 36.749 12.5684 36.749 13.04Z" fill="#999595"/>
</svg>
