<svg width="35" height="31" viewBox="0 0 35 31" fill="none" xmlns="http://www.w3.org/2000/svg">
<path d="M34.3455 13.1253L32.5673 27.3507C32.442 28.3542 31.9545 29.2773 31.1965 29.9466C30.4385 30.616 29.4621 30.9854 28.4509 30.9856H2.96363C2.17763 30.9856 1.42382 30.6734 0.868027 30.1176C0.312239 29.5618 0 28.808 0 28.022V14.982C0 14.5928 0.0766566 14.2074 0.225593 13.8479C0.374529 13.4883 0.592829 13.1616 0.868027 12.8864C1.14323 12.6112 1.46993 12.3929 1.8295 12.244C2.18906 12.095 2.57444 12.0184 2.96363 12.0184H8.97684L14.4136 1.14628C14.5613 0.851079 14.7883 0.602823 15.0691 0.429309C15.3499 0.255796 15.6735 0.163874 16.0036 0.163835C17.7322 0.165796 19.3895 0.853351 20.6118 2.07566C21.8341 3.29797 22.5216 4.95522 22.5236 6.68382V8.462H30.229C30.8173 8.46209 31.3987 8.58725 31.9349 8.82918C32.4711 9.07111 32.9497 9.42429 33.339 9.86527C33.7282 10.3063 34.0193 10.825 34.1928 11.387C34.3664 11.9491 34.4184 12.5416 34.3455 13.1253ZM8.29817 15.5747H3.55636V27.4292H8.29817V15.5747ZM30.6736 12.2184C30.6179 12.1554 30.5495 12.1051 30.4728 12.0706C30.3962 12.0361 30.3131 12.0183 30.229 12.0184H20.7454C20.2738 12.0184 19.8215 11.831 19.4881 11.4975C19.1546 11.1641 18.9672 10.7118 18.9672 10.2402V6.68382C18.9672 6.07511 18.7797 5.48117 18.4303 4.98275C18.0809 4.48432 17.5864 4.10558 17.0142 3.89801L11.8545 14.2159V27.4292H28.4509C28.596 27.4304 28.7366 27.3782 28.8458 27.2826C28.9551 27.187 29.0254 27.0546 29.0436 26.9106L30.8218 12.6852C30.8317 12.6013 30.8237 12.5163 30.7981 12.4358C30.7726 12.3553 30.7301 12.2812 30.6736 12.2184Z" fill="#999595"/>
</svg>
