<svg width="38" height="38" viewBox="0 0 38 38" fill="none" xmlns="http://www.w3.org/2000/svg">
<path d="M36.1237 23.2624L34.3455 9.03693C34.2202 8.03348 33.7327 7.11034 32.9747 6.441C32.2167 5.77165 31.2403 5.40219 30.229 5.40204H4.74181C3.9558 5.40204 3.20199 5.71428 2.6462 6.27007C2.09041 6.82585 1.77818 7.57967 1.77818 8.36567V21.4056C1.77818 21.7948 1.85483 22.1802 2.00377 22.5398C2.1527 22.8993 2.371 23.2261 2.6462 23.5012C2.9214 23.7764 3.24811 23.9947 3.60767 24.1437C3.96724 24.2926 4.35262 24.3693 4.74181 24.3693H10.755L16.1918 35.2414C16.3395 35.5366 16.5665 35.7848 16.8473 35.9583C17.1281 36.1318 17.4517 36.2238 17.7818 36.2238C19.5104 36.2218 21.1676 35.5343 22.3899 34.312C23.6123 33.0897 24.2998 31.4324 24.3018 29.7038V27.9256H32.0072C32.5954 27.9255 33.1769 27.8004 33.7131 27.5585C34.2493 27.3165 34.7278 26.9633 35.1171 26.5224C35.5064 26.0814 35.7975 25.5627 35.971 25.0006C36.1445 24.4386 36.1966 23.846 36.1237 23.2624ZM10.0763 20.8129H5.33453V8.9584H10.0763V20.8129ZM32.4518 24.1692C32.3961 24.2322 32.3276 24.2826 32.251 24.3171C32.1744 24.3516 32.0913 24.3694 32.0072 24.3693H22.5236C22.052 24.3693 21.5997 24.5566 21.2662 24.8901C20.9328 25.2236 20.7454 25.6759 20.7454 26.1475V29.7038C20.7454 30.3125 20.5579 30.9065 20.2085 31.4049C19.859 31.9033 19.3646 32.2821 18.7924 32.4896L13.6327 22.1717V8.9584H30.229C30.3742 8.95726 30.5147 9.00943 30.624 9.10503C30.7332 9.20063 30.8036 9.333 30.8218 9.47703L32.5999 23.7025C32.6099 23.7863 32.6019 23.8714 32.5763 23.9519C32.5507 24.0324 32.5083 24.1065 32.4518 24.1692Z" fill="#999595"/>
</svg>
