<svg width="33" height="31" viewBox="0 0 33 31" fill="none" xmlns="http://www.w3.org/2000/svg">
<path d="M0 30.3598C1.02454 29.2517 1.94866 28.2502 2.87598 27.2519C6.0308 23.8521 9.18348 20.4501 12.3511 17.0631C12.6267 16.768 12.5167 16.606 12.3287 16.3567C8.36833 11.0902 4.41332 5.81842 0.458319 0.547691C0.353622 0.408118 0.258539 0.262153 0.153841 0.111926C0.34187 -0.057479 0.546992 0.016036 0.726473 0.0149705C3.59177 0.00964332 6.45813 0.0181677 9.32343 0.00751329C9.64393 0.00644785 9.83837 0.112991 10.0275 0.366566C12.5755 3.78343 15.1416 7.18858 17.6821 10.6118C17.9663 10.9943 18.0903 10.8782 18.337 10.6108C21.4972 7.19284 24.6702 3.7845 27.8282 0.364435C28.0686 0.104467 28.3068 -0.00314111 28.6583 0.00751329C29.3965 0.0320184 30.1369 0.0149705 31.0001 0.0149705C30.4574 0.611617 30.0023 1.1209 29.5375 1.62165C26.2246 5.18981 22.9138 8.7601 19.5881 12.3165C19.3082 12.6159 19.3285 12.7939 19.5592 13.1018C23.777 18.7081 27.9842 24.323 32.1913 29.9368C32.2736 30.0465 32.3975 30.1339 32.3975 30.3054C32.2426 30.4205 32.061 30.3608 31.8954 30.3619C29.0301 30.3662 26.1637 30.3576 23.2984 30.3704C22.9608 30.3715 22.7514 30.2777 22.5452 30.0018C19.775 26.2855 16.9856 22.581 14.2164 18.8637C13.9558 18.5131 13.8329 18.5131 13.5359 18.836C10.0798 22.5863 6.60343 26.3186 3.13879 30.0614C2.94115 30.2745 2.74137 30.3736 2.44757 30.3662C1.68478 30.348 0.92198 30.3598 0 30.3598ZM28.2919 28.2662C28.138 28.0499 28.059 27.9348 27.9756 27.823C24.8219 23.6166 21.6692 19.4092 18.5144 15.2039C15.3393 10.9688 12.1631 6.7347 8.98263 2.50384C8.87259 2.35681 8.80635 2.13094 8.56597 2.12987C7.17072 2.12667 5.77546 2.12774 4.37059 2.12774C4.38341 2.36214 4.52977 2.45589 4.62058 2.57842C8.21876 7.38355 11.8191 12.1876 15.4205 16.9917C18.1479 20.6302 20.8765 24.2676 23.605 27.9039C23.7407 28.084 23.8465 28.2758 24.1392 28.2726C25.4896 28.2577 26.8389 28.2662 28.2919 28.2662Z" fill="#D9D9D9"/>
</svg>
